<svg width="150" height="70" viewBox="0 0 150 70" fill="none" xmlns="http://www.w3.org/2000/svg">
<rect width="150" height="70" fill="#1E1E1E"/>
<path d="M9.93791 11.8122C6.0918 7.49841 9.15385 0.665917 14.9332 0.665917V0.665917C17.1109 0.665917 19.1524 1.72547 20.4059 3.50624L30.8507 18.345C34.1422 23.0211 31.2537 29.5176 25.577 30.2062V30.2062C20.6356 30.8057 17.6107 35.9327 19.4756 40.5478L25.462 55.3626C27.1178 59.4602 24.1018 63.9318 19.6823 63.9318V63.9318C17.2938 63.9318 15.1153 62.5671 14.0732 60.4179L4.62873 40.9408C2.37335 36.2896 5.4078 30.8081 10.5468 30.2503V30.2503C16.5893 29.5945 19.3634 22.3837 15.3186 17.8471L9.93791 11.8122Z" fill="#432818"/>
<path d="M29.3776 9.96257C26.6808 6.13903 29.8053 0.931698 34.4481 1.51198V1.51198C35.9544 1.70026 37.3114 2.51535 38.1852 3.75673L49.2573 19.4867C52.5488 24.1628 49.6603 30.6593 43.9836 31.3479V31.3479C39.0422 31.9474 36.0173 37.0744 37.8822 41.6894L43.9457 56.695C45.5646 60.7014 42.6158 65.0735 38.2946 65.0735V65.0735C35.8102 65.0735 33.5744 63.5655 32.6436 61.262L24.7324 41.6839C22.8686 37.0716 25.8917 31.9477 30.83 31.3486V31.3486C36.5065 30.66 39.3922 24.1614 36.0965 19.4887L29.3776 9.96257Z" fill="#432818"/>
<path d="M47.7842 11.7702C45.0874 7.94665 48.2119 2.73932 52.8547 3.3196V3.3196C54.361 3.50787 55.718 4.32297 56.5918 5.56435L67.664 21.2943C70.9554 25.9704 68.0669 32.4669 62.3902 33.1555V33.1555C57.4488 33.755 54.4239 38.882 56.2888 43.4971L62.3523 58.5026C63.9712 62.509 61.0224 66.8811 56.7012 66.8811V66.8811C54.2168 66.8811 51.981 65.3731 51.0502 63.0696L43.139 43.4915C41.2752 38.8792 44.2983 33.7553 49.2367 33.1563V33.1563C54.9131 32.4677 57.7988 25.969 54.5031 21.2963L47.7842 11.7702Z" fill="#432818"/>
<path d="M87.6658 25.2684C84.0072 27.5531 79.3465 24.5235 79.9494 20.2525V20.2525C80.1593 18.7655 81.0167 17.4477 82.2912 16.6534L100.896 5.05846C105.244 2.3482 110.982 3.9786 113.256 8.57062L113.543 9.14967C116.13 14.3749 123.179 15.3312 127.065 10.9842V10.9842C130.736 6.87765 137.325 7.46218 140.216 12.1508L147.527 24.0069C148.803 26.0772 147.857 28.7976 145.571 29.6286V29.6286C143.957 30.2152 142.15 29.6585 141.146 28.2654L139.023 25.3199C136.416 21.702 131.483 20.6632 127.638 22.9222L120.493 27.12C116.355 29.5515 111.075 26.9897 110.423 22.2342V22.2342C109.761 17.4012 104.335 14.8587 100.197 17.4426L87.6658 25.2684Z" fill="#432818"/>
<path d="M84.1801 44.1526C80.5215 46.4373 75.8608 43.4077 76.4637 39.1366V39.1366C76.6736 37.6497 77.531 36.3319 78.8055 35.5376L97.41 23.9426C101.759 21.2324 107.497 22.8628 109.77 27.4548L110.057 28.0338C112.645 33.2591 119.693 34.2153 123.579 29.8684V29.8684C127.25 25.7618 133.84 26.3463 136.731 31.035L144.041 42.891C145.317 44.9613 144.371 47.6818 142.085 48.5127V48.5127C140.471 49.0994 138.664 48.5427 137.66 47.1495L135.537 44.204C132.93 40.5861 127.997 39.5473 124.152 41.8064L117.008 46.0041C112.869 48.4356 107.589 45.8738 106.937 41.1183V41.1183C106.275 36.2853 100.849 33.7428 96.7116 36.3267L84.1801 44.1526Z" fill="#432818"/>
<path d="M80.6945 63.0366C77.0359 65.3213 72.3752 62.2917 72.9781 58.0207V58.0207C73.188 56.5337 74.0454 55.2159 75.3199 54.4216L93.9244 42.8267C98.2731 40.1164 104.011 41.7468 106.285 46.3388L106.572 46.9179C109.159 52.1431 116.207 53.0994 120.093 48.7524V48.7524C123.764 44.6458 130.354 45.2304 133.245 49.919L140.555 61.7751C141.832 63.8454 140.885 66.5658 138.599 67.3968V67.3968C136.985 67.9834 135.178 67.4267 134.174 66.0335L132.052 63.0881C129.444 59.4702 124.512 58.4314 120.667 60.6904L113.522 64.8882C109.383 67.3197 104.103 64.7579 103.452 60.0024V60.0024C102.79 55.1694 97.3636 52.6269 93.226 55.2108L80.6945 63.0366Z" fill="#432818"/>
</svg>
